:SAMPLES-PER-SECOND 30
:FULLY-SPECIFIED
:DEGREES
213
root  1.67239 37.8716 -2.65962 -18.365 -82.1178 14.4232
RightUpLeg  -6.12497 -5.42961 -21.547
RightLeg  20.3248 -6.96115 -3.16661
RightFoot  -1.90499 -1.7428 20.7415
RightToes  -2.32832e-010 0 -3.6325e-017
Spine  18.6884 -0.802558 1.14704
Spine1  -11.7499 -0.378035 -0.658346
HEad  -16.4685 -1.09858 -2.70654
LeftShoulder1  1.26289 -2.05753 -15.9338
LeftArm  15.8085 9.06551 -31.9924
LeftForeArm  2.97605 -21.7231 -5.47626
LeftHand  -0.281852 -3.54616 3.91338
RightShoulder  0.583886 -0.570969 13.0123
RightArm  -15.9353 -10.963 23.5602
RightForeArm  19.0345 3.98837 11.1112
RightHand  -0.050001 -3.36391 -1.87997
LeftUpLeg  -7.8649 -0.174739 29.5026
LeftLeg  16.3038 -5.37304 -1.51502
LeftFoot  24.4212 10.3763 -32.0768
LeftToes  2.2737e-010 4.38529e-011 2.18788e-011
214
root  1.39967 37.695 -2.15457 6.03171 -82.8212 -8.92992
RightUpLeg  -6.22881 -6.95443 -18.9363
RightLeg  18.7148 -5.53857 -2.61186
RightFoot  -1.28438 -1.95183 21.8397
RightToes  -2.32832e-010 0 -3.6325e-017
Spine  16.5624 0.0484516 1.31983
Spine1  -11.8467 0.064073 4.56936
HEad  -14.9496 -0.143037 -4.28733
LeftShoulder1  1.15428 -1.65337 -15.5873
LeftArm  8.60379 9.81533 -30.4694
LeftForeArm  9.183 -15.6743 -9.04289
LeftHand  -0.258443 -3.76721 3.53995
RightShoulder  0.331279 -1.77288 12.1786
RightArm  -17.3122 -7.7515 17.2811
RightForeArm  15.6547 0.901668 10.274
RightHand  -0.0269383 -3.84497 -0.468315
LeftUpLeg  -6.16093 -2.27046 30.8826
LeftLeg  14.6359 1.91792 1.08883
LeftFoot  18.2936 9.72125 -35.9802
LeftToes  2.2737e-010 4.38529e-011 2.18788e-011
215
root  1.26013 37.3555 -1.63302 23.9326 -83.0512 -26.4983
RightUpLeg  -7.09357 -8.48921 -18.0311
RightLeg  19.7016 -3.40593 -1.54238
RightFoot  -1.77025 -1.94383 22.7989
RightToes  -2.32832e-010 0 -3.6325e-017
Spine  15.2477 0.105621 2.32697
Spine1  -10.9804 -0.0598774 6.4299
HEad  -14.4868 1.40189 -5.71531
LeftShoulder1  0.930424 -0.649774 -15.6018
LeftArm  -1.18848 9.86695 -27.2314
LeftForeArm  16.8197 -9.23994 -11.9091
LeftHand  -0.199593 -3.64001 2.82024
RightShoulder  0.16788 -2.51871 10.12
RightArm  -19.5274 -3.87839 13.5658
RightForeArm  13.6723 -1.7103 9.22801
RightHand  -0.0152928 -4.29066 0.945073
LeftUpLeg  -4.61514 -0.171734 30.8639
LeftLeg  15.1079 9.86967 4.06754
LeftFoot  9.7151 6.26987 -33.0489
LeftToes  2.2737e-010 4.38529e-011 2.18788e-011
216
root  1.27481 36.9259 -1.17931 3.38478 -84.0757 -6.70665
RightUpLeg  -8.56019 -11.1101 -22.0811
RightLeg  23.7363 0.615486 0.0979289
RightFoot  -3.32166 -1.67465 23.2546
RightToes  -2.32832e-010 0 -3.6325e-017
Spine  16.3798 -0.590045 2.07111
Spine1  -11.0388 -0.643603 2.56446
HEad  -14.6686 2.66929 -5.58652
LeftShoulder1  0.573557 0.883131 -14.9669
LeftArm  -6.73832 8.86231 -21.8135
LeftForeArm  20.4387 -4.02132 -12.5367
LeftHand  -0.0972376 -3.26746 1.53884
RightShoulder  0.127519 -2.64378 7.58037
RightArm  -21.7427 -1.15037 12.478
RightForeArm  12.4297 -4.12859 8.19957
RightHand  0.00183891 -4.225 2.61714
LeftUpLeg  -2.47632 6.37164 27.7419
LeftLeg  15.136 6.90621 3.90854
LeftFoot  3.16408 3.7678 -29.3565
LeftToes  2.2737e-010 4.38529e-011 2.18788e-011
217
root  1.40429 36.5075 -0.773042 -55.1422 -83.134 51.3135
RightUpLeg  -11.5004 -11.0357 -29.9908
RightLeg  28.4556 3.04094 1.53842
RightFoot  -4.68824 -1.39988 23.2253
RightToes  -2.32832e-010 0 -3.6325e-017
Spine  19.0558 -1.31999 1.62642
Spine1  -13.2879 -0.84215 -7.47161
HEad  -14.7676 2.35233 -3.67189
LeftShoulder1  0.172537 2.65278 -12.9757
LeftArm  -9.2839 5.69883 -15.0367
LeftForeArm  21.9722 0.410738 -12.0164
LeftHand  -0.0108685 -2.63497 0.361937
RightShoulder  0.0996371 -2.7483 5.56689
RightArm  -22.8205 -0.980589 12.6784
RightForeArm  10.8669 -5.8702 7.49117
RightHand  0.0245631 -3.80113 3.51125
LeftUpLeg  0.046878 13.3202 22.2571
LeftLeg  14.5599 -0.898771 1.17349
LeftFoot  -0.0784942 3.07218 -30.5224
LeftToes  2.2737e-010 4.38529e-011 2.18788e-011
218
root  1.53981 36.2146 -0.416979 -87.9674 -78.518 85.1912
RightUpLeg  -16.1707 -7.73449 -36.4166
RightLeg  31.111 2.65758 1.49246
RightFoot  -5.09964 -1.30311 22.9684
RightToes  -2.32832e-010 0 -3.6325e-017
Spine  20.8961 -1.49866 3.69714
Spine1  -16.3938 -0.350711 -20.4859
HEad  -15.0309 0.391528 -1.37795
LeftShoulder1  -0.108125 4.12837 -9.82493
LeftArm  -12.5378 1.00132 -9.31283
LeftForeArm  21.9062 4.11141 -10.6996
LeftHand  -0.0189245 -1.36451 0.501823
RightShoulder  0.0331254 -3.22572 4.60834
RightArm  -22.4008 -3.23458 12.1366
RightForeArm  8.71217 -5.92091 7.35119
RightHand  0.0241925 -3.53907 2.86619
LeftUpLeg  1.74121 15.4039 16.9289
LeftLeg  13.4091 -1.21316 -0.508307
LeftFoot  -1.37009 3.03625 -33.7531
LeftToes  2.2737e-010 4.38529e-011 2.18788e-011
219
root  1.58599 36.182 -0.284137 -100.752 -76.6653 100.205
RightUpLeg  -20.5346 -3.81653 -37.5976
RightLeg  31.1822 0.642749 0.196637
RightFoot  -4.67671 -1.35776 22.5002
RightToes  -2.32832e-010 0 -3.6325e-017
Spine  21.0475 -0.885265 7.38896
Spine1  -18.4295 0.747625 -29.9
HEad  -16.0739 -1.49431 -0.576652
LeftShoulder1  -0.219966 5.03166 -6.61504
LeftArm  -17.1392 -2.2182 -6.41467
LeftForeArm  19.4716 5.97834 -9.02761
LeftHand  -0.107267 0.0670822 2.32312
RightShoulder  -0.0348243 -3.77941 4.16734
RightArm  -21.0956 -5.76496 9.87824
RightForeArm  6.37984 -4.54678 7.66848
RightHand  0.00335221 -3.63206 1.58886
LeftUpLeg  1.78089 14.3022 14.5108
LeftLeg  11.7578 4.61889 0.154062
LeftFoot  -1.81159 2.99947 -34.8175
LeftToes  2.2737e-010 4.38529e-011 2.18788e-011
220
root  1.57848 36.3566 -0.441307 -108.669 -79.2559 110.037
RightUpLeg  -21.9942 -3.004 -33.7182
RightLeg  29.6386 -0.464807 -0.516597
RightFoot  -3.82938 -1.49707 22.1421
RightToes  -2.32832e-010 0 -3.6325e-017
Spine  20.3166 0.00270169 9.09765
Spine1  -19.3246 1.68282 -29.1167
HEad  -17.4017 -1.50735 -1.87456
LeftShoulder1  -0.277225 5.77509 -4.2133
LeftArm  -19.86 -1.86368 -6.33039
LeftForeArm  15.8451 5.91738 -7.90816
LeftHand  -0.166255 0.191839 3.73021
RightShoulder  -0.0616121 -4.0418 3.08048
RightArm  -20.3446 -5.85648 6.65668
RightForeArm  4.69109 -3.63213 7.92068
RightHand  -0.00629454 -3.79971 1.11715
LeftUpLeg  0.402648 14.6786 16.7844
LeftLeg  11.0832 6.3144 1.16768
LeftFoot  -1.26293 3.08169 -33.9285
LeftToes  2.2737e-010 4.38529e-011 2.18788e-011
221
root  1.61204 36.6214 -0.758565 -92.6179 -84.7652 94.2867
RightUpLeg  -19.4419 -6.66729 -27.4157
RightLeg  26.8002 0.632366 0.110446
RightFoot  -2.78947 -1.72889 22.5809
RightToes  -2.32832e-010 0 -3.6325e-017
Spine  20.3747 0.514208 6.71852
Spine1  -20.3804 1.59766 -17.2821
HEad  -17.7537 0.279962 -4.17676
LeftShoulder1  -0.3247 6.5222 -2.56521
LeftArm  -19.5841 0.885088 -7.44386
LeftForeArm  14.3669 5.73642 -7.71335
LeftHand  -0.131921 -0.793199 2.59483
RightShoulder  -0.0633515 -4.18214 0.985927
RightArm  -21.0059 -2.72423 3.37228
RightForeArm  4.3629 -4.45619 7.82368
RightHand  0.00182575 -3.79938 1.74306
LeftUpLeg  -1.2287 16.8074 22.4015
LeftLeg  10.9659 1.93798 1.20379
LeftFoot  0.352505 3.46887 -33.0258
LeftToes  2.2737e-010 4.38529e-011 2.18788e-011
222
root  1.68301 36.867 -1.03626 -13.7269 -87.762 14.3427
RightUpLeg  -14.6065 -11.9438 -21.7644
RightLeg  23.072 2.40515 0.911195
RightFoot  -1.70912 -2.04614 23.8167
RightToes  -2.32832e-010 0 -3.6325e-017
Spine  21.7973 0.687364 2.72218
Spine1  -22.0081 1.13221 -1.81207
HEad  -16.9007 2.1266 -5.86582
LeftShoulder1  -0.307947 6.7315 -1.17454
LeftArm  -17.903 3.19247 -7.87157
LeftForeArm  15.6193 6.5767 -8.03037
LeftHand  -0.00659193 -1.47442 0.226351
RightShoulder  -0.0949581 -4.8169 -1.29174
RightArm  -22.6172 1.92048 0.210572
RightForeArm  5.42849 -6.14095 7.55992
RightHand  0.0156337 -3.77457 2.74842
LeftUpLeg  -2.63836 17.8787 28.0662
LeftLeg  10.9234 -2.04813 1.13692
LeftFoot  2.1786 3.88635 -32.1131
LeftToes  2.2737e-010 4.38529e-011 2.18788e-011
223
root  1.69931 37.0684 -1.16845 40.2915 -83.5227 -40.5258
RightUpLeg  -10.4367 -14.1326 -17.96
RightLeg  19.1505 1.78944 0.508071
RightFoot  -0.567425 -2.39016 24.9371
RightToes  -2.32832e-010 0 -3.6325e-017
Spine  22.5819 0.688055 0.865936
Spine1  -22.6906 1.00109 7.98991
HEad  -16.0002 2.69615 -6.21358
LeftShoulder1  -0.219521 6.22213 0.497571
LeftArm  -16.9245 3.46212 -7.17962
LeftForeArm  16.8186 7.34333 -8.34268
LeftHand  0.0720575 -1.18986 -1.15982
RightShoulder  -0.152521 -6.07573 -2.86469
RightArm  -24.1597 5.80959 -2.72177
RightForeArm  7.00456 -7.13346 7.41629
RightHand  0.0251282 -3.82831 3.61381
LeftUpLeg  -3.76975 17.581 31.5828
LeftLeg  10.4876 -2.50231 1.54484
LeftFoot  3.51325 4.02531 -30.3833
LeftToes  2.2737e-010 4.38529e-011 2.18788e-011
